<svg width="1241" height="499" viewBox="0 0 1241 499" fill="none" xmlns="http://www.w3.org/2000/svg">
<g opacity="0.2">
<path d="M241.916 1.16919C284.622 1.16919 327.414 0.137773 370.121 1.51344C407.414 2.71715 441.183 34.3571 447.284 69.3505C449.175 80.4418 447.972 89.212 438.348 95.4025C429.841 100.905 420.647 98.8416 415.405 91.6194C380.518 44.2449 329.906 53.6165 282.302 54.9922C226.792 56.6258 171.369 61.6984 115.859 64.5357C95.494 65.5675 71.606 64.7938 70.1452 38.3122C68.5126 8.99335 94.8925 12.1746 113.797 10.9709C156.503 8.2196 199.209 6.92989 242.002 5.03835C242.002 3.74866 242.002 2.45887 242.002 1.16919H241.916Z" fill="#DCD5CF"/>
<path d="M126.322 337.757C137.406 317.38 151.928 316.434 165.247 314.887C227.545 307.751 289.929 300.184 352.399 295.026C373.279 293.306 395.019 297.003 415.9 300.786C428.273 303.022 441.936 310.158 441.936 325.291C441.936 342.916 425.094 342.83 413.408 344.721C358.07 353.663 302.474 350.654 246.879 346.441C208.125 343.518 169.286 340.767 126.322 337.672V337.757Z" fill="#DCD5CF"/>
<path d="M608.348 85.7399C647.015 88.2332 675.458 89.0931 703.728 92.2744C718.422 93.908 732.17 101.474 731.998 118.842C731.741 137.413 715.242 134.834 703.384 136.468C661.108 142.228 619.175 151.17 576.125 148.934C559.111 147.988 542.355 146.527 527.231 136.725C514.944 128.729 510.218 118.154 512.022 104.226C513.998 89.3512 527.403 86.9436 537.629 86.3418C564.524 84.6222 591.592 85.7399 608.348 85.7399Z" fill="#DCD5CF"/>
<path d="M240.038 188.789C194.153 189.219 148.697 193.69 104.186 205.641C91.5542 208.994 78.8368 212.433 66.5491 206.5C55.1206 200.998 43.2625 194.807 44.0359 178.643C44.8952 161.361 55.2925 150.442 70.6737 150.614C143.541 151.818 216.494 154.569 289.275 157.321C299.587 157.751 310.499 162.651 309.898 174.602C309.296 187.241 297.352 188.445 287.213 188.617C271.488 188.961 255.763 188.617 240.038 188.617V188.789Z" fill="#DCD5CF"/>
<path d="M476.533 206.739C503.515 208.888 526.372 209.834 548.971 212.843C571.484 215.852 584.975 229.351 586.092 252.737C586.779 267.354 585.061 283.088 568.906 288.419C546.737 295.727 528.004 286.613 519.755 265.72C508.069 236.057 484.009 252.393 465.706 247.75C443.623 242.076 402.635 263.055 404.267 225.052C405.728 191.004 445.341 211.467 467.768 206.824C471.893 205.964 476.275 206.739 476.447 206.739H476.533Z" fill="#DCD5CF"/>
<path d="M27.2175 393.637C10.3756 389.768 -1.48251 382.804 0.150126 365.093C2.29833 341.534 20.2573 335 39.3334 335C54.8864 335 73.1892 339.987 70.0098 361.137C66.4868 384.868 43.9736 387.447 27.2175 393.637Z" fill="#DCD5CF"/>
<path d="M1043.08 498.031C1000.38 498.031 957.585 499.062 914.879 497.686C877.586 496.483 843.816 464.843 837.716 429.849C835.825 418.758 837.028 409.988 846.652 403.797C855.159 398.295 864.353 400.358 869.595 407.581C904.482 454.955 955.094 445.583 1002.7 444.208C1058.21 442.574 1113.63 437.501 1169.14 434.664C1189.51 433.632 1213.39 434.406 1214.85 460.888C1216.49 490.206 1190.11 487.025 1171.2 488.229C1128.5 490.98 1085.79 492.27 1043 494.161C1043 495.451 1043 496.741 1043 498.031L1043.08 498.031Z" fill="#DCD5CF"/>
<path d="M1158.68 161.443C1147.59 181.82 1133.07 182.765 1119.75 184.313C1057.45 191.449 995.071 199.015 932.601 204.174C911.721 205.894 889.981 202.197 869.1 198.414C856.727 196.178 843.064 189.042 843.064 173.909C843.064 156.284 859.906 156.37 871.592 154.479C926.93 145.537 982.526 148.546 1038.12 152.759C1076.87 155.682 1115.71 158.433 1158.68 161.528L1158.68 161.443Z" fill="#DCD5CF"/>
<path d="M676.652 413.46C637.985 410.967 609.542 410.107 581.272 406.926C566.578 405.292 552.83 397.726 553.002 380.358C553.259 361.787 569.758 364.366 581.616 362.732C623.892 356.972 665.825 348.03 708.875 350.266C725.889 351.211 742.645 352.673 757.769 362.475C770.056 370.471 774.782 381.046 772.978 394.974C771.002 409.849 757.597 412.256 747.371 412.858C720.476 414.578 693.408 413.46 676.652 413.46Z" fill="#DCD5CF"/>
<path d="M1044.96 310.411C1090.85 309.981 1136.3 305.51 1180.81 293.559C1193.45 290.206 1206.16 286.767 1218.45 292.699C1229.88 298.202 1241.74 304.393 1240.96 320.557C1240.1 337.838 1229.71 348.758 1214.33 348.586C1141.46 347.382 1068.51 344.631 995.725 341.879C985.413 341.449 974.501 336.548 975.102 324.597C975.704 311.958 987.648 310.755 997.787 310.583C1013.51 310.239 1029.24 310.583 1044.96 310.583L1044.96 310.411Z" fill="#DCD5CF"/>
<path d="M808.467 292.461C781.485 290.312 758.628 289.366 736.029 286.357C713.516 283.348 700.025 269.849 698.908 246.463C698.221 231.846 699.939 216.112 716.094 210.781C738.263 203.473 756.996 212.587 765.245 233.48C776.931 263.142 800.991 246.807 819.294 251.449C841.377 257.124 882.365 236.145 880.732 274.148C879.272 308.196 839.659 287.733 817.232 292.376C813.107 293.235 808.725 292.461 808.553 292.461L808.467 292.461Z" fill="#DCD5CF"/>
<path d="M1186.65 10C1203.49 13.8691 1215.35 20.8329 1213.72 38.5446C1211.57 62.1029 1193.61 68.6373 1174.53 68.6373C1158.98 68.6373 1140.68 63.6507 1143.86 42.4999C1147.38 18.7696 1169.89 16.1905 1186.65 10Z" fill="#DCD5CF"/>
</g>
</svg>
